<svg width="18" height="19" viewBox="0 0 18 19" fill="none" xmlns="http://www.w3.org/2000/svg">
<path d="M15.75 3.59375H2.25C2.02622 3.59375 1.81161 3.68264 1.65338 3.84088C1.49514 3.99911 1.40625 4.21372 1.40625 4.4375V14C1.40625 14.373 1.55441 14.7306 1.81813 14.9944C2.08185 15.2581 2.43954 15.4062 2.8125 15.4062H15.1875C15.5605 15.4062 15.9181 15.2581 16.1819 14.9944C16.4456 14.7306 16.5938 14.373 16.5938 14V4.4375C16.5938 4.21372 16.5049 3.99911 16.3466 3.84088C16.1884 3.68264 15.9738 3.59375 15.75 3.59375ZM13.5809 5.28125L9 9.48031L4.41914 5.28125H13.5809ZM3.09375 13.7188V6.35562L8.42977 11.2473C8.58539 11.39 8.78886 11.4691 9 11.4691C9.21114 11.4691 9.41461 11.39 9.57023 11.2473L14.9062 6.35562V13.7188H3.09375Z" fill="#FDC52C"/>
</svg>
